<svg xmlns="http://www.w3.org/2000/svg" width="48" height="48" viewBox="0 0 48 48">
  <path fill="#fff" fill-rule="evenodd" d="M 28 1 L 27 2 L 26 2 L 24 4 L 23 4 L 21 6 L 20 6 L 17 9 L 16 9 L 14 11 L 13 11 L 11 13 L 10 13 L 7 16 L 7 17 L 5 19 L 5 21 L 4 22 L 4 24 L 6 24 L 7 25 L 10 25 L 11 24 L 12 24 L 13 23 L 14 23 L 15 22 L 16 23 L 16 24 L 15 25 L 14 25 L 14 30 L 15 31 L 15 32 L 13 34 L 12 34 L 12 35 L 13 36 L 14 35 L 17 35 L 19 33 L 20 34 L 20 35 L 19 36 L 19 40 L 20 41 L 22 41 L 23 42 L 22 43 L 18 43 L 17 42 L 16 42 L 15 43 L 15 44 L 14 45 L 38 45 L 39 44 L 40 44 L 41 45 L 43 45 L 43 42 L 42 41 L 42 40 L 43 39 L 43 38 L 42 37 L 42 34 L 41 33 L 41 32 L 39 30 L 39 29 L 38 29 L 36 27 L 35 27 L 34 26 L 33 26 L 32 25 L 29 25 L 28 24 L 26 24 L 20 18 L 19 18 L 18 17 L 19 16 L 24 16 L 25 15 L 27 15 L 28 14 L 29 14 L 30 13 L 31 13 L 37 7 L 37 6 L 36 7 L 34 7 L 33 8 L 30 8 L 29 9 L 27 9 L 26 10 L 24 10 L 23 9 L 24 8 L 25 8 L 25 7 L 26 6 L 26 5 L 27 4 L 27 2 Z M 37 43 L 38 42 L 39 43 L 39 44 L 38 45 L 37 44 Z M 41 39 L 42 38 L 43 39 L 42 40 Z M 19 33 L 20 32 L 21 33 L 20 34 Z M 20 32 L 21 31 L 22 32 L 21 33 Z M 15 22 L 16 21 L 17 22 L 16 23 Z M 9 16 L 10 16 L 11 17 L 11 18 L 9 20 L 7 18 Z M 21 10 L 22 9 L 23 9 L 24 10 L 23 11 L 22 11 Z"/>
</svg>
